PathFileType	4	(X/Y/Z)	c:\Git\powerlifing_model_clean\simulations\HC835B\Session1\HC835B_CUT_0001\marker_experimental.trc
DataRate	CameraRate	NumFrames	NumMarkers	Units	OrigDataRate	OrigDataStartFrame	OrigNumFrames
240.000000	240.000000	4	38	mm	240.000000	46	75
Frame#	Time	RPSI			LPSI			RASI			LASI			RTH1			RTH2			RTH3			RTH4			RSK1			RSK2			RSK3			RSK4			RCAL1			RCAL2			RCAL3			RST			RPT			RTN			RFMB			RSMB			RVMB			RFMH			RSMH			RVMH			RPM			LTH1			LTH2			LTH3			LTH4			LSK1			LSK2			LSK3			LSK4			LCAL1			LCAL2			LCAL3			LFMH			LVMH			
		X1	Y1	Z1	X2	Y2	Z2	X3	Y3	Z3	X4	Y4	Z4	X5	Y5	Z5	X6	Y6	Z6	X7	Y7	Z7	X8	Y8	Z8	X9	Y9	Z9	X10	Y10	Z10	X11	Y11	Z11	X12	Y12	Z12	X13	Y13	Z13	X14	Y14	Z14	X15	Y15	Z15	X16	Y16	Z16	X17	Y17	Z17	X18	Y18	Z18	X19	Y19	Z19	X20	Y20	Z20	X21	Y21	Z21	X22	Y22	Z22	X23	Y23	Z23	X24	Y24	Z24	X25	Y25	Z25	X26	Y26	Z26	X27	Y27	Z27	X28	Y28	Z28	X29	Y29	Z29	X30	Y30	Z30	X31	Y31	Z31	X32	Y32	Z32	X33	Y33	Z33	X34	Y34	Z34	X35	Y35	Z35	X36	Y36	Z36	X37	Y37	Z37	X38	Y38	Z38	

47	0.1916666666666667	253.2392120361329	1059.98095703125	-618.7470703125001	167.7740936279297	1030.741943359375	-568.6918945312501	216.9273223876954	1024.529418945313	-839.9381103515627	9.365078926086428	966.1854248046877	-700.3526611328126	403.7593383789064	785.9300537109377	-820.4790649414065	378.2013244628907	769.9871826171877	-872.976013183594	413.9721679687501	705.8367309570314	-845.5816650390627	381.4402160644532	686.4843750000001	-890.500671386719	587.0039672851564	325.6876220703126	-708.0292968750001	580.3464965820314	288.7945861816407	-757.3522338867189	606.1383056640626	270.2359008789063	-705.2878417968751	589.6469726562501	231.4134368896485	-748.3648071289064	652.9257202148439	138.5067596435547	-594.0213012695314	626.2006225585939	100.1842346191407	-578.2660522460939	687.5332031250001	104.1050262451172	-599.2077026367189	587.4871826171876	90.9923782348633	-640.5523681640626	691.3054809570314	98.03058624267581	-663.1667480468751	583.2316284179689	95.51158142089845	-700.9437866210939	581.3111572265626	77.96868133544923	-731.4382934570314	622.7134399414064	97.83905792236331	-757.0125732421876	692.2196655273439	61.36569213867189	-700.0229492187501	568.6790161132814	49.92077255249025	-771.580017089844	615.6445922851564	52.113094329834	-807.7056884765627	686.3480834960939	33.10536575317384	-774.9185180664065	583.2207641601564	33.7839584350586	-853.9292602539065	-17.6973991394043	706.2357788085939	-741.8567504882814	-59.92628860473634	733.0671997070314	-776.5225219726565	-46.36058044433594	658.5305786132814	-806.994812011719	-75.13832092285158	690.9337768554689	-850.187683105469	163.7075347900391	382.5608520507813	-806.9530029296877	160.1384429931641	340.0936279296876	-837.2070312500002	199.1518859863282	337.2734069824219	-807.0794677734377	203.757308959961	301.3146972656251	-851.3284912109377	357.2797241210938	287.9143981933594	-752.1447143554689	360.1192016601563	236.2404022216797	-740.6427612304689	400.3862609863282	271.5137329101563	-765.4686889648439	328.4778747558594	183.0233917236328	-956.2252197265627	286.0448303222657	126.0505599975586	-867.5101318359377	
48	0.1958333333333333	248.3135070800782	1062.207763671875	-636.5852050781251	162.6893920898438	1032.383056640625	-585.8917236328126	211.4635467529297	1025.798583984375	-856.3527832031252	3.28061604499817	970.6342773437502	-717.7437133789064	399.0267333984376	788.026062011719	-834.7246093750002	372.9524536132813	771.0780029296877	-886.6126098632815	409.7942810058595	707.7333374023439	-858.8486938476565	376.7021789550782	687.3284912109376	-902.8394165039065	586.4137573242189	330.9269714355469	-712.9577636718751	580.8906250000001	293.7578735351563	-762.2593383789064	606.1778564453126	275.7109069824219	-709.8082885742189	590.8156738281251	236.5029907226563	-752.8410034179689	653.2036743164064	144.9104461669922	-597.9431762695314	625.8589477539064	107.4915924072266	-581.1019287109376	687.3388061523439	109.9561843872071	-602.0215454101564	588.0281982421876	97.27889251708987	-643.7015380859376	691.7537231445314	101.9636535644532	-665.6085815429689	584.7702636718751	100.0858688354492	-703.8876342773439	582.3107299804689	80.79913330078126	-733.4196777343751	624.1478271484376	99.04182434082034	-759.6734619140626	692.2232055664064	63.7306594848633	-701.2478027343751	568.3845214843751	50.42733764648439	-771.640563964844	615.8685302734376	51.36568069458009	-808.475524902344	686.6995239257814	32.87215042114259	-774.888610839844	582.9834594726564	34.22682571411134	-853.0572509765627	-19.71915054321289	707.7744750976564	-761.6582031250001	-62.6686363220215	734.2448730468751	-795.9072875976565	-47.55171966552735	660.2999267578126	-827.286315917969	-76.98158264160158	692.6279907226564	-870.1583251953127	163.3639526367188	376.0783081054688	-839.1558837890627	157.6994018554688	335.2660217285157	-870.6890258789065	196.8829956054688	330.7660827636719	-841.457214355469	199.8798065185547	296.2015686035157	-886.9782714843752	354.9326477050782	275.5596923828126	-792.1586914062502	356.5088500976563	225.5496215820313	-777.903503417969	397.2397460937501	258.9862670898438	-806.0892333984377	322.0794372558594	178.9879913330078	-999.3692016601565	279.7961730957032	119.1661911010742	-912.2281494140627	
49	0.2	243.4078063964844	1064.469604492188	-654.7227783203126	157.5699005126953	1034.076538085938	-603.1236572265626	205.7904357910157	1026.99267578125	-872.6859130859377	-2.770175933837891	975.2509765625002	-735.7792358398439	394.1850585937501	790.273376464844	-849.4224853515627	367.4580688476563	772.388366699219	-900.6201171875002	405.3815307617189	709.7551879882814	-872.6252441406252	371.5339050292969	688.3569946289064	-915.5737304687502	585.7164916992189	336.5917358398438	-718.4201049804689	581.3234252929689	299.1973571777344	-767.6367187500001	606.3499755859376	281.8382263183594	-714.7780761718751	592.1348876953126	242.1892089843751	-757.9779663085939	653.4171752929689	151.8827819824219	-602.6337280273439	625.6774902343751	115.439682006836	-584.6508178710939	687.1990356445314	116.4716491699219	-605.4899902343751	588.5438842773439	103.6132354736328	-647.2692871093751	692.0566406250001	106.2965393066407	-668.5380859375001	586.4168090820314	104.6233215332032	-707.2596435546876	583.2763061523439	83.47569274902345	-735.5280151367189	624.9042358398439	101.009750366211	-764.5717773437501	692.0762329101564	66.30732727050783	-702.8498535156251	567.9622192382814	50.90243530273439	-771.948425292969	615.6788330078126	50.53632736206056	-809.0935668945315	686.9960937500001	32.72503662109376	-774.8503417968752	582.6110839843751	34.64758300781251	-852.1824951171877	-21.34529495239258	709.1311645507814	-781.246520996094	-65.34889221191408	735.3053588867189	-815.3941650390627	-48.75466537475587	661.9213256835939	-847.309020996094	-78.64294433593751	694.1074829101564	-889.9168090820315	162.5892486572266	369.8417968750001	-871.114685058594	155.1211090087891	330.5327758789063	-903.9050903320315	195.4090270996094	323.7308044433594	-875.863952636719	196.1751861572266	290.9154357910157	-922.4982910156252	351.9848022460938	263.7418823242188	-831.2030029296877	352.3189392089844	214.9390563964844	-816.9584960937502	393.8636474609376	247.0806732177735	-847.151306152344	315.3568420410157	175.4720916748047	-1042.523559570313	273.5018920898438	112.2704696655274	-957.3482666015627	
50	0.2041666666666667	238.3331298828126	1066.711303710938	-672.8585815429689	152.4069213867188	1035.812866210938	-620.2908325195314	200.1865386962891	1027.743896484375	-888.6627197265627	-8.812148094177248	979.9092407226565	-753.7502441406251	389.3630371093751	792.7190551757815	-864.6384277343752	361.5711975097657	773.7072753906252	-914.9821777343752	400.8696899414064	711.9302368164064	-886.885681152344	366.2327575683594	689.5376586914064	-928.6699829101565	585.0787963867189	342.6268920898438	-724.4644165039064	582.1250610351564	305.2133789062501	-773.8275146484377	606.5887451171876	288.3434753417969	-720.5707397460939	593.5921020507814	248.3245239257813	-763.8999633789064	653.6713867187501	159.3962860107422	-608.1915893554689	625.3883666992189	123.8889694213867	-588.9594726562501	687.0453491210939	123.6902923583985	-609.6086425781251	589.0089721679689	110.5361099243164	-651.9257812500001	692.3453979492189	111.1043014526367	-672.0689086914064	587.5870361328126	109.4159774780274	-711.4599609375001	584.1175537109376	86.20152282714845	-738.2144165039064	625.7631225585939	102.1612548828125	-768.1105957031252	691.9421386718751	69.43523406982423	-704.9335327148439	567.3289184570314	51.36341857910158	-772.0480957031252	615.3211669921876	50.24201583862306	-809.8411254882815	687.3267822265626	32.80953598022462	-774.884216308594	582.0939331054689	35.20292282104493	-851.4116821289065	-23.89302253723145	710.7286987304689	-800.5114746093752	-68.04848480224611	736.0372924804689	-834.754333496094	-49.80408477783205	663.2742919921876	-867.1230468750002	-80.29028320312501	695.0391845703126	-909.630554199219	161.5636138916016	363.6357727050782	-902.9592895507815	152.477294921875	325.6979675292969	-937.2070312500002	193.1224060058594	317.0206909179688	-910.1531982421877	192.1087188720704	285.9906311035157	-957.778991699219	348.4916076660157	252.1484985351563	-871.540222167969	348.6544799804688	203.7846984863282	-858.7332153320315	390.0937805175782	235.6963500976563	-888.6751708984377	308.4988708496094	172.0366821289063	-1085.171875	266.9671630859376	105.983627319336	-1002.123291015625	
